<svg version="1.1" id="Layer_1" xmlns="http://www.w3.org/2000/svg" xmlns:xlink="http://www.w3.org/1999/xlink" x="0px" y="0px"
	 width="100%" viewBox="0 0 361 361" enable-background="new 0 0 361 361" xml:space="preserve">
<path fill="#FEFEFE" opacity="1.000000" stroke="none" 
	d="
M197.000000,1.000000 
	C251.982986,1.000000 306.965973,1.000000 361.974487,1.000000 
	C361.974487,121.279106 361.974487,241.558228 361.974487,361.918671 
	C241.758148,361.918671 121.516212,361.918671 1.137143,361.918671 
	C1.137143,241.666763 1.137143,121.333405 1.137143,1.000000 
	C56.763512,1.000000 112.413101,1.000000 168.348526,1.375830 
	C120.791809,6.536546 80.646889,26.770456 48.807663,62.701221 
	C15.256864,100.563515 -0.271615,145.011093 4.275786,195.556992 
	C8.325245,240.568069 28.215837,278.195190 61.123142,308.954559 
	C116.728531,360.930450 198.405533,371.855438 264.504395,336.305359 
	C337.223572,297.194672 374.325653,211.726959 351.189270,132.123306 
	C331.465118,64.259857 286.549530,21.252750 217.239029,4.774152 
	C210.570526,3.188709 203.749969,2.242796 197.000000,1.000000 
z"/>
<path fill="#2D3F88" opacity="1.000000" stroke="none" 
	d="
M196.562500,1.000000 
	C203.749969,2.242796 210.570526,3.188709 217.239029,4.774152 
	C286.549530,21.252750 331.465118,64.259857 351.189270,132.123306 
	C374.325653,211.726959 337.223572,297.194672 264.504395,336.305359 
	C198.405533,371.855438 116.728531,360.930450 61.123142,308.954559 
	C28.215837,278.195190 8.325245,240.568069 4.275786,195.556992 
	C-0.271615,145.011093 15.256864,100.563515 48.807663,62.701221 
	C80.646889,26.770456 120.791809,6.536546 168.817184,1.375830 
	C171.041672,1.000000 173.083328,1.000000 175.829926,1.320863 
	C181.023239,1.427818 185.511612,1.213909 190.000000,1.000000 
	C192.041672,1.000000 194.083328,1.000000 196.562500,1.000000 
M92.124199,257.198090 
	C99.583359,263.841095 106.973396,270.564240 114.536720,277.086426 
	C117.441429,279.591309 117.786346,281.970734 116.027718,285.340332 
	C110.874191,295.214722 106.016983,305.243225 100.945801,315.161285 
	C97.870811,321.175323 97.899910,321.583771 103.759644,324.724518 
	C123.057968,335.068329 143.709671,340.678467 165.384628,343.558929 
	C199.383255,348.077179 230.796280,340.897980 260.572052,324.664429 
	C264.267059,322.649933 264.563202,320.691864 262.488342,317.164612 
	C256.418304,306.845520 250.759109,296.285492 244.756424,285.925629 
	C242.864868,282.661041 242.796448,280.380951 246.027817,277.838501 
	C253.878784,271.661407 261.550018,265.249237 269.151459,258.765045 
	C272.063049,256.281342 274.442352,256.178497 277.501587,258.575745 
	C286.543182,265.660858 295.892120,272.358063 304.841766,279.554047 
	C308.457550,282.461304 310.473724,282.231689 313.164032,278.448975 
	C323.949890,263.283661 332.385803,246.976440 338.092377,229.259537 
	C340.291962,222.430603 340.186218,222.275406 333.556213,220.106750 
	C323.453278,216.802094 313.331238,213.546799 303.303802,210.024261 
	C298.493408,208.334427 298.062225,205.968536 299.246704,198.365173 
	C299.896240,194.195816 302.215668,193.489624 305.823181,193.403854 
	C317.468781,193.126968 329.106171,192.496201 340.751953,192.240128 
	C344.296753,192.162216 345.475769,190.562775 345.453918,187.367889 
	C345.424377,183.050934 345.551544,178.731171 345.444885,174.416718 
	C344.422638,133.076950 329.733429,97.242386 301.806427,66.837692 
	C263.272522,24.885109 215.693527,7.498369 159.257736,15.310761 
	C115.648056,21.347635 80.574799,42.600639 52.993229,76.637505 
	C27.238838,108.419556 14.423452,144.595535 15.825865,185.641006 
	C15.932076,188.749557 16.175972,191.159393 20.305578,191.201782 
	C31.124754,191.312820 41.955437,192.188187 52.754974,191.866669 
	C67.373184,191.431473 64.692230,193.314484 65.989891,203.811661 
	C66.549843,208.341248 64.789894,209.986420 60.807777,211.143234 
	C49.798763,214.341415 38.887672,217.876434 27.936001,221.272293 
	C22.217857,223.045334 21.772640,223.845490 23.660727,229.432770 
	C30.060968,248.372452 39.537125,265.643951 51.941933,281.306854 
	C53.248131,282.956146 54.832882,284.384796 56.413109,286.046997 
	C57.644310,285.054993 58.630108,284.427490 59.411369,283.605560 
	C67.669258,274.917633 75.932739,266.234344 84.105080,257.466217 
	C86.484528,254.913300 88.732841,253.570297 92.124199,257.198090 
z"/>
<path fill="#5A6FAD" opacity="1.000000" stroke="none" 
	d="
M189.535355,1.000000 
	C185.511612,1.213909 181.023239,1.427818 176.267426,1.320863 
	C180.356903,1.000000 184.713806,1.000000 189.535355,1.000000 
z"/>
<path fill="#FDFEFC" opacity="1.000000" stroke="none" 
	d="
M91.846680,256.953247 
	C88.732841,253.570297 86.484528,254.913300 84.105080,257.466217 
	C75.932739,266.234344 67.669258,274.917633 59.411369,283.605560 
	C58.630108,284.427490 57.644310,285.054993 56.413109,286.046997 
	C54.832882,284.384796 53.248131,282.956146 51.941933,281.306854 
	C39.537125,265.643951 30.060968,248.372452 23.660727,229.432770 
	C21.772640,223.845490 22.217857,223.045334 27.936001,221.272293 
	C38.887672,217.876434 49.798763,214.341415 60.807777,211.143234 
	C64.789894,209.986420 66.549843,208.341248 65.989891,203.811661 
	C64.692230,193.314484 67.373184,191.431473 52.754974,191.866669 
	C41.955437,192.188187 31.124754,191.312820 20.305578,191.201782 
	C16.175972,191.159393 15.932076,188.749557 15.825865,185.641006 
	C14.423452,144.595535 27.238838,108.419556 52.993229,76.637505 
	C80.574799,42.600639 115.648056,21.347635 159.257736,15.310761 
	C215.693527,7.498369 263.272522,24.885109 301.806427,66.837692 
	C329.733429,97.242386 344.422638,133.076950 345.444885,174.416718 
	C345.551544,178.731171 345.424377,183.050934 345.453918,187.367889 
	C345.475769,190.562775 344.296753,192.162216 340.751953,192.240128 
	C329.106171,192.496201 317.468781,193.126968 305.823181,193.403854 
	C302.215668,193.489624 299.896240,194.195816 299.246704,198.365173 
	C298.062225,205.968536 298.493408,208.334427 303.303802,210.024261 
	C313.331238,213.546799 323.453278,216.802094 333.556213,220.106750 
	C340.186218,222.275406 340.291962,222.430603 338.092377,229.259537 
	C332.385803,246.976440 323.949890,263.283661 313.164032,278.448975 
	C310.473724,282.231689 308.457550,282.461304 304.841766,279.554047 
	C295.892120,272.358063 286.543182,265.660858 277.501587,258.575745 
	C274.442352,256.178497 272.063049,256.281342 269.151459,258.765045 
	C261.550018,265.249237 253.878784,271.661407 246.027817,277.838501 
	C242.796448,280.380951 242.864868,282.661041 244.756424,285.925629 
	C250.759109,296.285492 256.418304,306.845520 262.488342,317.164612 
	C264.563202,320.691864 264.267059,322.649933 260.572052,324.664429 
	C230.796280,340.897980 199.383255,348.077179 165.384628,343.558929 
	C143.709671,340.678467 123.057968,335.068329 103.759644,324.724518 
	C97.899910,321.583771 97.870811,321.175323 100.945801,315.161285 
	C106.016983,305.243225 110.874191,295.214722 116.027718,285.340332 
	C117.786346,281.970734 117.441429,279.591309 114.536720,277.086426 
	C106.973396,270.564240 99.583359,263.841095 91.846680,256.953247 
M188.362045,332.815552 
	C192.227142,332.803589 196.092224,332.791656 200.793793,332.852173 
	C216.035797,331.320648 230.322952,326.762665 243.884537,319.655975 
	C247.676620,317.668854 247.457809,315.882050 245.327194,312.705811 
	C240.983154,306.229858 236.885010,299.572937 233.014664,292.802429 
	C231.215790,289.655609 229.377182,288.759399 225.777817,289.760956 
	C216.822708,292.252716 207.731995,294.253754 198.711197,296.513580 
	C188.231094,299.139008 188.251328,299.168121 187.823364,310.107025 
	C187.745499,312.096985 187.511749,314.080902 187.042267,316.945618 
	C187.320450,322.017761 187.598648,327.089905 187.953323,332.041351 
	C187.953323,332.041351 187.836517,332.123657 188.362045,332.815552 
M271.302399,59.171307 
	C249.497635,43.214996 225.489105,33.083160 198.316925,30.720797 
	C174.601608,28.658978 151.413147,30.783987 128.969437,38.743610 
	C95.069923,50.766010 69.407814,72.850700 51.740795,104.051613 
	C42.035145,121.192322 36.149097,139.654221 34.808441,159.460052 
	C34.520958,163.707169 36.105793,165.034637 40.197979,165.010788 
	C45.497852,164.979874 50.799919,165.562439 56.103298,165.837463 
	C62.988926,166.194489 63.132984,165.811798 64.096161,158.986252 
	C69.535454,120.440742 89.126564,91.439514 123.444740,72.938004 
	C149.345230,58.974606 177.146271,55.632298 205.801392,61.319027 
	C232.549561,66.627312 255.482941,79.115952 273.117065,100.414574 
	C287.747681,118.085503 296.033508,138.477875 298.997589,161.113693 
	C299.372223,163.974625 300.300568,165.996292 303.538544,165.821838 
	C309.181213,165.517838 314.828644,165.224747 320.455292,164.718628 
	C328.064362,164.034195 329.058960,162.853043 327.908630,155.288803 
	C325.569824,139.909653 321.266022,125.097656 314.495483,111.051651 
	C304.534821,90.387306 290.083679,73.433647 271.302399,59.171307 
M222.194458,125.376755 
	C224.139084,138.085617 227.245819,140.440964 239.871216,138.003952 
	C245.826324,136.854462 251.648987,135.018768 258.835480,133.156052 
	C257.041718,135.258804 255.902084,136.362061 255.035782,137.649277 
	C250.519104,144.360428 245.596863,150.862442 241.776428,157.954727 
	C239.437363,162.297028 241.838974,164.941132 246.793304,164.827621 
	C258.598114,164.557159 270.402069,164.249878 282.205963,163.940033 
	C287.022156,163.813614 287.753784,162.886795 286.174774,158.087112 
	C283.839935,150.990067 281.749420,143.757721 278.727417,136.950333 
	C254.553009,82.494415 201.584824,61.777901 148.905579,76.136391 
	C126.831467,82.153008 109.684807,96.163330 95.704231,113.992157 
	C85.273369,127.294189 78.376656,142.303116 75.337242,158.992157 
	C74.767044,162.123001 74.475258,165.085831 79.279526,165.038620 
	C91.438599,164.919159 103.599991,164.951767 115.759735,165.031876 
	C119.546402,165.056808 120.554596,162.996765 119.714142,159.900055 
	C118.763313,156.396683 117.835777,152.715088 115.982887,149.667419 
	C112.951149,144.680771 109.179291,140.144073 105.250534,134.776733 
	C107.701271,135.289825 109.433990,135.772232 111.199554,136.000061 
	C116.785736,136.720886 122.373444,137.771408 127.980324,137.913132 
	C137.261337,138.147766 141.078903,133.663330 139.666122,124.333824 
	C138.723892,118.111687 137.085373,111.995590 135.782745,105.826920 
	C135.546249,104.706963 135.427094,103.562241 135.084763,101.323830 
	C140.183640,105.722893 144.109482,109.535316 148.457550,112.782356 
	C162.135651,122.996872 169.595444,120.718781 175.217819,104.667992 
	C177.209045,98.983429 178.724625,93.132248 180.457352,87.357132 
	C181.958298,88.886185 182.439011,90.384499 182.928543,91.879929 
	C184.940018,98.024368 186.601761,104.312653 189.051392,110.277283 
	C192.568298,118.840614 198.368698,121.134880 206.669617,116.974350 
	C211.339279,114.633835 215.356552,110.985016 219.645004,107.894058 
	C221.258438,106.731186 222.807693,105.479279 225.537903,103.384148 
	C224.257553,111.471725 223.224609,117.996536 222.194458,125.376755 
M174.017807,312.368500 
	C173.758102,309.568237 173.950317,306.617889 173.086746,304.018219 
	C172.465897,302.149170 170.710999,299.786011 168.990067,299.294098 
	C157.519547,296.015106 145.955353,293.034973 134.327179,290.369690 
	C132.713745,289.999908 129.724808,291.374329 128.833923,292.833466 
	C124.597992,299.771423 120.894028,307.032745 116.944901,314.147949 
	C115.306999,317.098999 115.818161,319.220367 119.064484,320.458527 
	C121.545601,321.404846 124.050705,322.288483 126.529167,323.241547 
	C140.322205,328.545685 154.743622,330.327057 169.380035,330.941620 
	C173.452621,331.112579 175.729324,329.718109 175.144073,325.161407 
	C174.638123,321.222076 174.407455,317.247406 174.017807,312.368500 
M310.516205,259.958862 
	C314.000366,252.403992 317.363831,244.790131 321.016479,237.317627 
	C323.029572,233.199356 321.742249,231.162842 317.630280,229.986023 
	C313.956665,228.934662 310.392090,227.508270 306.737213,226.384583 
	C292.093170,221.882309 295.275848,219.785507 288.012268,233.969818 
	C282.095337,245.524414 281.952881,242.408691 290.772430,251.287918 
	C295.774048,256.323364 300.887817,261.247467 306.490784,266.751892 
	C308.014282,264.215759 309.094177,262.418121 310.516205,259.958862 
M228.549698,251.956757 
	C232.135117,258.009796 235.720520,264.062836 239.572174,270.565369 
	C248.139359,263.059692 255.981979,256.188904 263.824463,249.317978 
	C266.166199,247.266327 264.541107,245.922058 263.009583,244.492615 
	C257.306305,239.169403 251.576828,233.872437 245.966354,228.452606 
	C243.727142,226.289505 241.727966,226.225754 239.472336,228.272781 
	C236.523102,230.949280 233.479065,233.522110 230.553131,236.223312 
	C222.400482,243.749802 222.237427,241.231003 228.549698,251.956757 
M166.646713,284.897186 
	C169.254532,284.442932 173.831741,288.948761 174.071762,282.605194 
	C174.378281,274.503296 174.026688,266.355530 173.471634,258.260956 
	C173.369797,256.775970 171.175186,254.685410 169.548737,254.195679 
	C164.817139,252.770966 159.840408,252.183243 155.045547,250.937302 
	C152.146774,250.184082 150.471161,250.809601 149.044449,253.520325 
	C145.416214,260.413971 141.499023,267.155060 137.765793,273.994476 
	C137.247894,274.943237 137.116058,276.102753 136.659470,277.664062 
	C146.611221,280.066925 156.221283,282.387268 166.646713,284.897186 
M117.362762,229.002792 
	C111.955528,234.137772 106.563889,239.289307 101.133080,244.399216 
	C99.077782,246.333038 97.835655,248.415512 100.370476,250.719101 
	C106.498978,256.288635 112.726082,261.750061 118.938110,267.227081 
	C121.309723,269.318085 123.338005,269.151825 124.937027,266.211945 
	C128.581177,259.511963 132.192871,252.792267 135.974518,246.170105 
	C137.717163,243.118515 137.050140,240.954376 134.421799,238.879440 
	C130.263992,235.597000 126.321571,232.034714 122.076027,228.875748 
	C121.113358,228.159470 119.281860,228.610855 117.362762,229.002792 
M42.112713,240.358978 
	C46.919273,248.604523 51.725838,256.850067 56.964577,265.837006 
	C63.731586,258.995880 69.930267,253.001450 75.714508,246.630707 
	C76.754944,245.484772 76.761902,242.508240 76.077766,240.862518 
	C74.299980,236.586075 71.697250,232.660248 69.757874,228.440918 
	C68.151176,224.945328 65.948662,224.455200 62.533482,225.647003 
	C56.744938,227.667068 50.862103,229.428650 44.978241,231.160782 
	C38.118618,233.180161 37.900925,233.644699 42.112713,240.358978 
M193.993347,254.458725 
	C189.922516,255.032501 188.677277,257.315399 188.897873,261.390991 
	C189.257217,268.029816 189.270004,274.716919 188.908783,281.355347 
	C188.644440,286.213470 191.097305,286.776306 194.698273,285.831207 
	C203.202026,283.599426 211.654816,281.173431 220.127838,278.824554 
	C223.108383,277.998291 223.749817,276.263794 222.244614,273.584106 
	C220.372604,270.251465 218.695175,266.804230 216.718994,263.536316 
	C207.186630,247.773254 212.827637,249.463699 193.993347,254.458725 
M224.889343,225.436584 
	C227.279785,223.373276 229.920990,221.524033 231.947647,219.150162 
	C232.867157,218.073120 233.382294,215.124161 232.689346,214.445847 
	C228.306488,210.155380 223.627396,206.144730 218.812180,202.337540 
	C217.820541,201.553482 215.387848,201.344452 214.387909,202.015549 
	C206.300064,207.443588 204.956741,207.474609 209.406570,215.904480 
	C210.956604,218.840927 212.131683,221.972931 213.589569,224.961212 
	C214.633041,227.100037 215.862305,229.148209 217.209671,231.603043 
	C219.967758,229.365158 222.135742,227.606079 224.889343,225.436584 
M134.193695,223.295914 
	C136.642120,225.286011 139.141693,227.217117 141.524368,229.283051 
	C143.824188,231.277115 145.283325,230.653122 146.476562,228.092651 
	C148.018707,224.783478 149.665909,221.522873 151.290710,218.252686 
	C155.685745,209.406982 155.588791,209.519135 148.514221,202.961121 
	C145.838943,200.481186 143.996155,200.333618 141.499207,203.092682 
	C137.940994,207.024445 134.088440,210.692612 130.311142,214.422241 
	C128.174042,216.532394 127.398506,218.444061 130.522736,220.369568 
	C131.645065,221.061295 132.602539,222.020508 134.193695,223.295914 
z"/>
<path fill="#EFBE4C" opacity="1.000000" stroke="none" 
	d="
M271.596008,59.376366 
	C290.083679,73.433647 304.534821,90.387306 314.495483,111.051651 
	C321.266022,125.097656 325.569824,139.909653 327.908630,155.288803 
	C329.058960,162.853043 328.064362,164.034195 320.455292,164.718628 
	C314.828644,165.224747 309.181213,165.517838 303.538544,165.821838 
	C300.300568,165.996292 299.372223,163.974625 298.997589,161.113693 
	C296.033508,138.477875 287.747681,118.085503 273.117065,100.414574 
	C255.482941,79.115952 232.549561,66.627312 205.801392,61.319027 
	C177.146271,55.632298 149.345230,58.974606 123.444740,72.938004 
	C89.126564,91.439514 69.535454,120.440742 64.096161,158.986252 
	C63.132984,165.811798 62.988926,166.194489 56.103298,165.837463 
	C50.799919,165.562439 45.497852,164.979874 40.197979,165.010788 
	C36.105793,165.034637 34.520958,163.707169 34.808441,159.460052 
	C36.149097,139.654221 42.035145,121.192322 51.740795,104.051613 
	C69.407814,72.850700 95.069923,50.766010 128.969437,38.743610 
	C151.413147,30.783987 174.601608,28.658978 198.316925,30.720797 
	C225.489105,33.083160 249.497635,43.214996 271.596008,59.376366 
z"/>
<path fill="#F5DA4F" opacity="1.000000" stroke="none" 
	d="
M222.193054,124.949051 
	C223.224609,117.996536 224.257553,111.471725 225.537903,103.384148 
	C222.807693,105.479279 221.258438,106.731186 219.645004,107.894058 
	C215.356552,110.985016 211.339279,114.633835 206.669617,116.974350 
	C198.368698,121.134880 192.568298,118.840614 189.051392,110.277283 
	C186.601761,104.312653 184.940018,98.024368 182.928543,91.879929 
	C182.439011,90.384499 181.958298,88.886185 180.457352,87.357132 
	C178.724625,93.132248 177.209045,98.983429 175.217819,104.667992 
	C169.595444,120.718781 162.135651,122.996872 148.457550,112.782356 
	C144.109482,109.535316 140.183640,105.722893 135.084763,101.323830 
	C135.427094,103.562241 135.546249,104.706963 135.782745,105.826920 
	C137.085373,111.995590 138.723892,118.111687 139.666122,124.333824 
	C141.078903,133.663330 137.261337,138.147766 127.980324,137.913132 
	C122.373444,137.771408 116.785736,136.720886 111.199554,136.000061 
	C109.433990,135.772232 107.701271,135.289825 105.250534,134.776733 
	C109.179291,140.144073 112.951149,144.680771 115.982887,149.667419 
	C117.835777,152.715088 118.763313,156.396683 119.714142,159.900055 
	C120.554596,162.996765 119.546402,165.056808 115.759735,165.031876 
	C103.599991,164.951767 91.438599,164.919159 79.279526,165.038620 
	C74.475258,165.085831 74.767044,162.123001 75.337242,158.992157 
	C78.376656,142.303116 85.273369,127.294189 95.704231,113.992157 
	C109.684807,96.163330 126.831467,82.153008 148.905579,76.136391 
	C201.584824,61.777901 254.553009,82.494415 278.727417,136.950333 
	C281.749420,143.757721 283.839935,150.990067 286.174774,158.087112 
	C287.753784,162.886795 287.022156,163.813614 282.205963,163.940033 
	C270.402069,164.249878 258.598114,164.557159 246.793304,164.827621 
	C241.838974,164.941132 239.437363,162.297028 241.776428,157.954727 
	C245.596863,150.862442 250.519104,144.360428 255.035782,137.649277 
	C255.902084,136.362061 257.041718,135.258804 258.835480,133.156052 
	C251.648987,135.018768 245.826324,136.854462 239.871216,138.003952 
	C227.245819,140.440964 224.139084,138.085617 222.193054,124.949051 
z"/>
<path fill="#2B3E89" opacity="1.000000" stroke="none" 
	d="
M187.349976,316.067596 
	C187.511749,314.080902 187.745499,312.096985 187.823364,310.107025 
	C188.251328,299.168121 188.231094,299.139008 198.711197,296.513580 
	C207.731995,294.253754 216.822708,292.252716 225.777817,289.760956 
	C229.377182,288.759399 231.215790,289.655609 233.014664,292.802429 
	C236.885010,299.572937 240.983154,306.229858 245.327194,312.705811 
	C247.457809,315.882050 247.676620,317.668854 243.884537,319.655975 
	C230.322952,326.762665 216.035797,331.320648 200.053833,332.569305 
	C195.488083,332.232178 191.662308,332.177917 187.836517,332.123657 
	C187.836517,332.123657 187.953323,332.041351 187.956055,331.623749 
	C187.755859,326.159973 187.552917,321.113770 187.349976,316.067596 
z"/>
<path fill="#A1CFD4" opacity="1.000000" stroke="none" 
	d="
M174.036453,312.828430 
	C174.407455,317.247406 174.638123,321.222076 175.144073,325.161407 
	C175.729324,329.718109 173.452621,331.112579 169.380035,330.941620 
	C154.743622,330.327057 140.322205,328.545685 126.529167,323.241547 
	C124.050705,322.288483 121.545601,321.404846 119.064484,320.458527 
	C115.818161,319.220367 115.306999,317.098999 116.944901,314.147949 
	C120.894028,307.032745 124.597992,299.771423 128.833923,292.833466 
	C129.724808,291.374329 132.713745,289.999908 134.327179,290.369690 
	C145.955353,293.034973 157.519547,296.015106 168.990067,299.294098 
	C170.710999,299.786011 172.465897,302.149170 173.086746,304.018219 
	C173.950317,306.617889 173.758102,309.568237 174.036453,312.828430 
z"/>
<path fill="#A2CED4" opacity="1.000000" stroke="none" 
	d="
M310.345123,260.289673 
	C309.094177,262.418121 308.014282,264.215759 306.490784,266.751892 
	C300.887817,261.247467 295.774048,256.323364 290.772430,251.287918 
	C281.952881,242.408691 282.095337,245.524414 288.012268,233.969818 
	C295.275848,219.785507 292.093170,221.882309 306.737213,226.384583 
	C310.392090,227.508270 313.956665,228.934662 317.630280,229.986023 
	C321.742249,231.162842 323.029572,233.199356 321.016479,237.317627 
	C317.363831,244.790131 314.000366,252.403992 310.345123,260.289673 
z"/>
<path fill="#4C95BD" opacity="1.000000" stroke="none" 
	d="
M228.352997,251.647034 
	C222.237427,241.231003 222.400482,243.749802 230.553131,236.223312 
	C233.479065,233.522110 236.523102,230.949280 239.472336,228.272781 
	C241.727966,226.225754 243.727142,226.289505 245.966354,228.452606 
	C251.576828,233.872437 257.306305,239.169403 263.009583,244.492615 
	C264.541107,245.922058 266.166199,247.266327 263.824463,249.317978 
	C255.981979,256.188904 248.139359,263.059692 239.572174,270.565369 
	C235.720520,264.062836 232.135117,258.009796 228.352997,251.647034 
z"/>
<path fill="#4D96BD" opacity="1.000000" stroke="none" 
	d="
M166.239029,284.802368 
	C156.221283,282.387268 146.611221,280.066925 136.659470,277.664062 
	C137.116058,276.102753 137.247894,274.943237 137.765793,273.994476 
	C141.499023,267.155060 145.416214,260.413971 149.044449,253.520325 
	C150.471161,250.809601 152.146774,250.184082 155.045547,250.937302 
	C159.840408,252.183243 164.817139,252.770966 169.548737,254.195679 
	C171.175186,254.685410 173.369797,256.775970 173.471634,258.260956 
	C174.026688,266.355530 174.378281,274.503296 174.071762,282.605194 
	C173.831741,288.948761 169.254532,284.442932 166.239029,284.802368 
z"/>
<path fill="#A2CFD4" opacity="1.000000" stroke="none" 
	d="
M117.606522,228.763779 
	C119.281860,228.610855 121.113358,228.159470 122.076027,228.875748 
	C126.321571,232.034714 130.263992,235.597000 134.421799,238.879440 
	C137.050140,240.954376 137.717163,243.118515 135.974518,246.170105 
	C132.192871,252.792267 128.581177,259.511963 124.937027,266.211945 
	C123.338005,269.151825 121.309723,269.318085 118.938110,267.227081 
	C112.726082,261.750061 106.498978,256.288635 100.370476,250.719101 
	C97.835655,248.415512 99.077782,246.333038 101.133080,244.399216 
	C106.563889,239.289307 111.955528,234.137772 117.606522,228.763779 
z"/>
<path fill="#A2CED4" opacity="1.000000" stroke="none" 
	d="
M41.947044,240.030945 
	C37.900925,233.644699 38.118618,233.180161 44.978241,231.160782 
	C50.862103,229.428650 56.744938,227.667068 62.533482,225.647003 
	C65.948662,224.455200 68.151176,224.945328 69.757874,228.440918 
	C71.697250,232.660248 74.299980,236.586075 76.077766,240.862518 
	C76.761902,242.508240 76.754944,245.484772 75.714508,246.630707 
	C69.930267,253.001450 63.731586,258.995880 56.964577,265.837006 
	C51.725838,256.850067 46.919273,248.604523 41.947044,240.030945 
z"/>
<path fill="#A2CED4" opacity="1.000000" stroke="none" 
	d="
M194.374542,254.315887 
	C212.827637,249.463699 207.186630,247.773254 216.718994,263.536316 
	C218.695175,266.804230 220.372604,270.251465 222.244614,273.584106 
	C223.749817,276.263794 223.108383,277.998291 220.127838,278.824554 
	C211.654816,281.173431 203.202026,283.599426 194.698273,285.831207 
	C191.097305,286.776306 188.644440,286.213470 188.908783,281.355347 
	C189.270004,274.716919 189.257217,268.029816 188.897873,261.390991 
	C188.677277,257.315399 189.922516,255.032501 194.374542,254.315887 
z"/>
<path fill="#A4CFD4" opacity="1.000000" stroke="none" 
	d="
M224.596527,225.641800 
	C222.135742,227.606079 219.967758,229.365158 217.209671,231.603043 
	C215.862305,229.148209 214.633041,227.100037 213.589569,224.961212 
	C212.131683,221.972931 210.956604,218.840927 209.406570,215.904480 
	C204.956741,207.474609 206.300064,207.443588 214.387909,202.015549 
	C215.387848,201.344452 217.820541,201.553482 218.812180,202.337540 
	C223.627396,206.144730 228.306488,210.155380 232.689346,214.445847 
	C233.382294,215.124161 232.867157,218.073120 231.947647,219.150162 
	C229.920990,221.524033 227.279785,223.373276 224.596527,225.641800 
z"/>
<path fill="#4F96BC" opacity="1.000000" stroke="none" 
	d="
M133.914490,223.076782 
	C132.602539,222.020508 131.645065,221.061295 130.522736,220.369568 
	C127.398506,218.444061 128.174042,216.532394 130.311142,214.422241 
	C134.088440,210.692612 137.940994,207.024445 141.499207,203.092682 
	C143.996155,200.333618 145.838943,200.481186 148.514221,202.961121 
	C155.588791,209.519135 155.685745,209.406982 151.290710,218.252686 
	C149.665909,221.522873 148.018707,224.783478 146.476562,228.092651 
	C145.283325,230.653122 143.824188,231.277115 141.524368,229.283051 
	C139.141693,227.217117 136.642120,225.286011 133.914490,223.076782 
z"/>
<path fill="#334079" opacity="1.000000" stroke="none" 
	d="
M187.196121,316.506592 
	C187.552917,321.113770 187.755859,326.159973 187.917816,331.684082 
	C187.598648,327.089905 187.320450,322.017761 187.196121,316.506592 
z"/>
<path fill="#334079" opacity="1.000000" stroke="none" 
	d="
M188.099274,332.469604 
	C191.662308,332.177917 195.488083,332.232178 199.635590,332.533081 
	C196.092224,332.791656 192.227142,332.803589 188.099274,332.469604 
z"/>
</svg>